<?xml version="1.0" encoding="utf-8"?>
<!-- Generator: Adobe Illustrator 27.0.0, SVG Export Plug-In . SVG Version: 6.00 Build 0)  -->
<svg version="1.1" id="Layer_1" xmlns="http://www.w3.org/2000/svg" xmlns:xlink="http://www.w3.org/1999/xlink" x="0px" y="0px"
	 viewBox="0 0 48.52 48.49" style="enable-background:new 0 0 48.52 48.49;" xml:space="preserve">
<style type="text/css">
	.st0{fill:#EC5624;}
	.st1{fill:#C42D27;}
</style>
<g>
	<path class="st0" d="M9.98,23.44C13.73,5.99,26.67,2.1,31.95,1.24c-2.84-0.95-5.92-1.4-9.12-1.21C10.52,0.75,0.56,10.85,0.02,23.17
		c-0.11,2.64,0.2,5.2,0.87,7.6c1.25,4.47,4.98,7.91,9.57,8.49c4.77,0.6,11.53-1.09,19.46-10.27l-8.5-5.55l1.11-1.05
		c0.59-0.55,1.39-0.81,2.19-0.7l5.17,0.72c1.35,0.19,2.72-0.23,3.73-1.15l4.98-4.5c0,0,3.69-4.54,7.2-3.67l-0.02-0.03
		c-2.32-4.44-7.14-6.99-12.12-6.41C18.08,8.46,9.98,23.44,9.98,23.44z"/>
	<path class="st1" d="M38.6,16.75c3.13-1.88,3.11,1.08,3.11,1.08L39.25,25c-0.45,1.31-0.29,2.75,0.44,3.93l2.86,4.61
		c0.34,0.54,0.47,1.19,0.36,1.83l-0.29,1.8l-8.56-5.72c0,0-11.33,16.9-21.42,14.12c3.76,2.05,8.11,3.14,12.74,2.93
		c12.3-0.56,22.37-10.49,23.09-22.78c0.27-4.57-0.74-8.87-2.68-12.61C42.29,12.22,38.6,16.75,38.6,16.75z"/>
</g>
</svg>
